<svg width="132" height="42" viewBox="0 0 132 42" fill="none" xmlns="http://www.w3.org/2000/svg">
<path d="M106.986 27.327C120.158 25.9704 129.827 14.1834 128.581 1.00001V1.00001L123.586 1.5144C110.414 2.871 100.745 14.658 101.991 27.8414V27.8414L106.986 27.327Z" fill="#8DA74B"/>
<path d="M98.7753 33.7191C103.258 25.661 117.889 2.5315 128.106 1.47919" stroke="#638A4E" stroke-width="2" stroke-linecap="round"/>
<path d="M31.36 34H24.71V23.64C24.71 22.73 24.5233 22.0767 24.15 21.68C23.8 21.26 23.3683 21.05 22.855 21.05C22.3417 21.05 21.7817 21.295 21.175 21.785C20.5683 22.275 20.125 22.905 19.845 23.675V34H13.195V23.64C13.195 22.73 13.0083 22.0767 12.635 21.68C12.285 21.26 11.8533 21.05 11.34 21.05C10.8267 21.05 10.2667 21.295 9.66 21.785C9.05333 22.275 8.61 22.905 8.33 23.675V34H1.68V15.59H7.665V18.32C8.995 16.2667 11.2467 15.24 14.42 15.24C15.9367 15.24 17.08 15.5667 17.85 16.22C18.62 16.8733 19.1333 17.6083 19.39 18.425C20.0433 17.4217 20.9417 16.64 22.085 16.08C23.2283 15.52 24.5117 15.24 25.935 15.24C27.1483 15.24 28.1167 15.4617 28.84 15.905C29.5633 16.3483 30.1 16.92 30.45 17.62C30.8233 18.32 31.0683 19.055 31.185 19.825C31.3017 20.5717 31.36 21.26 31.36 21.89V34ZM43.66 34.35C41.4667 34.35 39.6234 33.9067 38.13 33.02C36.6367 32.11 35.505 30.9317 34.735 29.485C33.965 28.0383 33.58 26.475 33.58 24.795C33.58 23.0917 33.965 21.5167 34.735 20.07C35.505 18.6233 36.6367 17.4567 38.13 16.57C39.6234 15.6833 41.4667 15.24 43.66 15.24C45.8534 15.24 47.6967 15.6833 49.19 16.57C50.6834 17.4567 51.815 18.6233 52.585 20.07C53.355 21.5167 53.74 23.0917 53.74 24.795C53.74 26.475 53.355 28.0383 52.585 29.485C51.815 30.9317 50.6834 32.11 49.19 33.02C47.6967 33.9067 45.8534 34.35 43.66 34.35ZM40.405 24.795C40.405 26.0083 40.7084 26.9767 41.315 27.7C41.945 28.4 42.7267 28.75 43.66 28.75C44.6167 28.75 45.3984 28.4 46.005 27.7C46.6117 26.9767 46.915 26.0083 46.915 24.795C46.915 23.5583 46.6117 22.59 46.005 21.89C45.3984 21.19 44.6167 20.84 43.66 20.84C42.7267 20.84 41.945 21.19 41.315 21.89C40.7084 22.59 40.405 23.5583 40.405 24.795ZM68.2391 34L64.0741 27.28L62.7441 28.75V34H56.0941V8.45H62.7441V22.415L67.6441 15.59H74.6441L68.3091 23.64L75.2741 34H68.2391ZM84.6073 34.35C82.414 34.35 80.5706 33.9067 79.0773 33.02C77.584 32.11 76.4523 30.9317 75.6823 29.485C74.9123 28.0383 74.5273 26.475 74.5273 24.795C74.5273 23.0917 74.9123 21.5167 75.6823 20.07C76.4523 18.6233 77.584 17.4567 79.0773 16.57C80.5706 15.6833 82.414 15.24 84.6073 15.24C86.8006 15.24 88.644 15.6833 90.1373 16.57C91.6306 17.4567 92.7623 18.6233 93.5323 20.07C94.3023 21.5167 94.6873 23.0917 94.6873 24.795C94.6873 26.475 94.3023 28.0383 93.5323 29.485C92.7623 30.9317 91.6306 32.11 90.1373 33.02C88.644 33.9067 86.8006 34.35 84.6073 34.35ZM81.3523 24.795C81.3523 26.0083 81.6556 26.9767 82.2623 27.7C82.8923 28.4 83.674 28.75 84.6073 28.75C85.564 28.75 86.3456 28.4 86.9523 27.7C87.559 26.9767 87.8623 26.0083 87.8623 24.795C87.8623 23.5583 87.559 22.59 86.9523 21.89C86.3456 21.19 85.564 20.84 84.6073 20.84C83.674 20.84 82.8923 21.19 82.2623 21.89C81.6556 22.59 81.3523 23.5583 81.3523 24.795Z" fill="#87B676"/>
</svg>
